<mxfile host="app.diagrams.net" modified="2023-07-26T23:09:37.676Z" agent="Mozilla/5.0 (Windows NT 10.0; Win64; x64) AppleWebKit/537.36 (KHTML, like Gecko) Chrome/115.0.0.0 Safari/537.36" etag="X89DUyqm5fmnORJvyanF" version="21.6.5" type="device">
  <diagram name="Страница 1" id="BzP1vUhHiV8LzEPwVbQe">
    <mxGraphModel dx="1313" dy="708" grid="1" gridSize="10" guides="1" tooltips="1" connect="1" arrows="1" fold="1" page="1" pageScale="1" pageWidth="827" pageHeight="1169" background="#000099" math="0" shadow="0">
      <root>
        <mxCell id="0" />
        <mxCell id="1" parent="0" />
        <mxCell id="aTqOVKDoWQOQpHDkeblY-2" value="&lt;b&gt;&lt;font style=&quot;font-size: 15px;&quot;&gt;Начало&lt;/font&gt;&lt;/b&gt;" style="ellipse;whiteSpace=wrap;html=1;fillColor=#008a00;fontColor=#ffffff;strokeColor=#005700;" vertex="1" parent="1">
          <mxGeometry x="326" y="30" width="176" height="80" as="geometry" />
        </mxCell>
        <mxCell id="aTqOVKDoWQOQpHDkeblY-3" value="" style="endArrow=classic;html=1;rounded=0;fontStyle=1;strokeWidth=3;strokeColor=#FFFFFF;" edge="1" parent="1">
          <mxGeometry width="50" height="50" relative="1" as="geometry">
            <mxPoint x="413" y="110" as="sourcePoint" />
            <mxPoint x="413" y="160" as="targetPoint" />
          </mxGeometry>
        </mxCell>
        <mxCell id="aTqOVKDoWQOQpHDkeblY-4" value="&lt;b&gt;string[]arrayMax&lt;br&gt;string[]arrayMini&lt;br&gt;&lt;/b&gt;" style="shape=parallelogram;perimeter=parallelogramPerimeter;whiteSpace=wrap;html=1;fixedSize=1;fillStyle=auto;fillColor=#a20025;strokeColor=#6F0000;fontColor=#ffffff;" vertex="1" parent="1">
          <mxGeometry x="301" y="160" width="226" height="80" as="geometry" />
        </mxCell>
        <mxCell id="aTqOVKDoWQOQpHDkeblY-5" value="" style="endArrow=classic;html=1;rounded=0;fontStyle=1;strokeWidth=3;strokeColor=#FFFFFF;" edge="1" parent="1">
          <mxGeometry width="50" height="50" relative="1" as="geometry">
            <mxPoint x="413" y="240" as="sourcePoint" />
            <mxPoint x="413" y="300" as="targetPoint" />
          </mxGeometry>
        </mxCell>
        <mxCell id="aTqOVKDoWQOQpHDkeblY-6" value="&lt;b&gt;&amp;nbsp;i = 0;&lt;br&gt;&amp;nbsp;count = 0;&lt;br&gt;&lt;/b&gt;" style="rounded=0;whiteSpace=wrap;html=1;fillColor=#0050ef;fontColor=#ffffff;strokeColor=#001DBC;" vertex="1" parent="1">
          <mxGeometry x="313" y="300" width="202" height="70" as="geometry" />
        </mxCell>
        <mxCell id="aTqOVKDoWQOQpHDkeblY-7" value="" style="endArrow=classic;html=1;rounded=0;fontStyle=1;strokeWidth=3;strokeColor=#FFFFFF;" edge="1" parent="1">
          <mxGeometry width="50" height="50" relative="1" as="geometry">
            <mxPoint x="414" y="370" as="sourcePoint" />
            <mxPoint x="414" y="430" as="targetPoint" />
          </mxGeometry>
        </mxCell>
        <mxCell id="aTqOVKDoWQOQpHDkeblY-26" style="edgeStyle=orthogonalEdgeStyle;rounded=0;orthogonalLoop=1;jettySize=auto;html=1;entryX=1;entryY=0.5;entryDx=0;entryDy=0;strokeWidth=3;strokeColor=#FFFFFF;" edge="1" parent="1" source="aTqOVKDoWQOQpHDkeblY-8" target="aTqOVKDoWQOQpHDkeblY-25">
          <mxGeometry relative="1" as="geometry">
            <Array as="points">
              <mxPoint x="760" y="500" />
              <mxPoint x="760" y="1065" />
            </Array>
          </mxGeometry>
        </mxCell>
        <mxCell id="aTqOVKDoWQOQpHDkeblY-8" value="&lt;font size=&quot;1&quot;&gt;&lt;b style=&quot;font-size: 12px;&quot;&gt;i &amp;lt; array.Length&lt;/b&gt;&lt;/font&gt;" style="rhombus;whiteSpace=wrap;html=1;fillColor=#a0522d;fontColor=#ffffff;strokeColor=#6D1F00;" vertex="1" parent="1">
          <mxGeometry x="329" y="430" width="170" height="140" as="geometry" />
        </mxCell>
        <mxCell id="aTqOVKDoWQOQpHDkeblY-11" value="" style="endArrow=classic;html=1;rounded=0;fontStyle=1;strokeWidth=3;strokeColor=#FFFFFF;" edge="1" parent="1">
          <mxGeometry width="50" height="50" relative="1" as="geometry">
            <mxPoint x="413.9" y="570" as="sourcePoint" />
            <mxPoint x="413.9" y="630" as="targetPoint" />
          </mxGeometry>
        </mxCell>
        <mxCell id="aTqOVKDoWQOQpHDkeblY-22" style="edgeStyle=orthogonalEdgeStyle;rounded=0;orthogonalLoop=1;jettySize=auto;html=1;entryX=1;entryY=0.5;entryDx=0;entryDy=0;strokeWidth=3;strokeColor=#FFFFFF;" edge="1" parent="1" source="aTqOVKDoWQOQpHDkeblY-12" target="aTqOVKDoWQOQpHDkeblY-17">
          <mxGeometry relative="1" as="geometry">
            <Array as="points">
              <mxPoint x="640" y="700" />
              <mxPoint x="640" y="980" />
            </Array>
          </mxGeometry>
        </mxCell>
        <mxCell id="aTqOVKDoWQOQpHDkeblY-12" value="&lt;font size=&quot;1&quot;&gt;&lt;b style=&quot;font-size: 12px;&quot;&gt;array[i].Length &amp;lt;=3&lt;/b&gt;&lt;/font&gt;" style="rhombus;whiteSpace=wrap;html=1;fillColor=#a0522d;fontColor=#ffffff;strokeColor=#6D1F00;" vertex="1" parent="1">
          <mxGeometry x="329" y="630" width="170" height="140" as="geometry" />
        </mxCell>
        <mxCell id="aTqOVKDoWQOQpHDkeblY-14" value="" style="endArrow=classic;html=1;rounded=0;fontStyle=1;strokeWidth=3;strokeColor=#FFFFFF;" edge="1" parent="1">
          <mxGeometry width="50" height="50" relative="1" as="geometry">
            <mxPoint x="413.88" y="770" as="sourcePoint" />
            <mxPoint x="413.88" y="830" as="targetPoint" />
          </mxGeometry>
        </mxCell>
        <mxCell id="aTqOVKDoWQOQpHDkeblY-15" value="count = count+1;" style="rounded=0;whiteSpace=wrap;html=1;fillColor=#76608a;fontColor=#ffffff;strokeColor=#432D57;" vertex="1" parent="1">
          <mxGeometry x="311" y="830" width="206" height="60" as="geometry" />
        </mxCell>
        <mxCell id="aTqOVKDoWQOQpHDkeblY-16" value="" style="endArrow=classic;html=1;rounded=0;fontStyle=1;strokeWidth=3;strokeColor=#FFFFFF;" edge="1" parent="1">
          <mxGeometry width="50" height="50" relative="1" as="geometry">
            <mxPoint x="413.64" y="890" as="sourcePoint" />
            <mxPoint x="413.64" y="950" as="targetPoint" />
          </mxGeometry>
        </mxCell>
        <mxCell id="aTqOVKDoWQOQpHDkeblY-24" style="edgeStyle=orthogonalEdgeStyle;rounded=0;orthogonalLoop=1;jettySize=auto;html=1;entryX=0;entryY=0.5;entryDx=0;entryDy=0;strokeColor=#FFFFFF;strokeWidth=3;" edge="1" parent="1" source="aTqOVKDoWQOQpHDkeblY-17" target="aTqOVKDoWQOQpHDkeblY-8">
          <mxGeometry relative="1" as="geometry">
            <Array as="points">
              <mxPoint x="220" y="980" />
              <mxPoint x="220" y="500" />
            </Array>
          </mxGeometry>
        </mxCell>
        <mxCell id="aTqOVKDoWQOQpHDkeblY-17" value="i = i+1" style="rounded=0;whiteSpace=wrap;html=1;fillColor=#76608a;fontColor=#ffffff;strokeColor=#432D57;" vertex="1" parent="1">
          <mxGeometry x="311" y="950" width="206" height="60" as="geometry" />
        </mxCell>
        <mxCell id="aTqOVKDoWQOQpHDkeblY-25" value="&lt;font color=&quot;#ffffff&quot;&gt;PrintArray&lt;br&gt;i = 0;&lt;br&gt;&lt;/font&gt;" style="rounded=0;whiteSpace=wrap;html=1;fillColor=#FF6666;" vertex="1" parent="1">
          <mxGeometry x="326" y="1040" width="176" height="50" as="geometry" />
        </mxCell>
        <mxCell id="aTqOVKDoWQOQpHDkeblY-36" value="&lt;b&gt;&lt;font color=&quot;#ffffff&quot; style=&quot;font-size: 16px;&quot;&gt;NO&lt;/font&gt;&lt;/b&gt;" style="text;strokeColor=none;align=center;fillColor=none;html=1;verticalAlign=middle;whiteSpace=wrap;rounded=0;" vertex="1" parent="1">
          <mxGeometry x="502" y="460" width="60" height="30" as="geometry" />
        </mxCell>
        <mxCell id="aTqOVKDoWQOQpHDkeblY-37" value="&lt;b&gt;&lt;font color=&quot;#ffffff&quot; style=&quot;font-size: 16px;&quot;&gt;NO&lt;/font&gt;&lt;/b&gt;" style="text;strokeColor=none;align=center;fillColor=none;html=1;verticalAlign=middle;whiteSpace=wrap;rounded=0;" vertex="1" parent="1">
          <mxGeometry x="502" y="670" width="60" height="30" as="geometry" />
        </mxCell>
        <mxCell id="aTqOVKDoWQOQpHDkeblY-38" value="&lt;b&gt;&lt;font color=&quot;#ffffff&quot; style=&quot;font-size: 13px;&quot;&gt;YES&lt;/font&gt;&lt;/b&gt;" style="text;strokeColor=none;align=center;fillColor=none;html=1;verticalAlign=middle;whiteSpace=wrap;rounded=0;" vertex="1" parent="1">
          <mxGeometry x="414" y="584.5" width="60" height="30" as="geometry" />
        </mxCell>
        <mxCell id="aTqOVKDoWQOQpHDkeblY-39" value="&lt;b&gt;&lt;font color=&quot;#ffffff&quot; style=&quot;font-size: 13px;&quot;&gt;YES&lt;/font&gt;&lt;/b&gt;" style="text;strokeColor=none;align=center;fillColor=none;html=1;verticalAlign=middle;whiteSpace=wrap;rounded=0;" vertex="1" parent="1">
          <mxGeometry x="414" y="790" width="60" height="30" as="geometry" />
        </mxCell>
        <mxCell id="aTqOVKDoWQOQpHDkeblY-40" value="&lt;b&gt;&lt;font color=&quot;#ffffff&quot; style=&quot;font-size: 13px;&quot;&gt;YES&lt;/font&gt;&lt;/b&gt;" style="text;strokeColor=none;align=center;fillColor=none;html=1;verticalAlign=middle;whiteSpace=wrap;rounded=0;" vertex="1" parent="1">
          <mxGeometry x="414" y="900" width="60" height="30" as="geometry" />
        </mxCell>
      </root>
    </mxGraphModel>
  </diagram>
</mxfile>
